<svg width="29" height="38" viewBox="0 0 29 38" fill="none" xmlns="http://www.w3.org/2000/svg">
<path d="M10.2 28.836L7.965 36.001H7.095L5.28 30.536C5.26333 30.4826 5.24667 30.426 5.23 30.366C5.21667 30.306 5.20167 30.2426 5.185 30.176C5.16833 30.2426 5.15167 30.306 5.135 30.366C5.11833 30.426 5.10167 30.4826 5.085 30.536L3.26 36.001H2.39L0.155 28.836H0.96C1.04667 28.836 1.11833 28.8576 1.175 28.901C1.235 28.9443 1.27333 28.9993 1.29 29.066L2.77 34.046C2.79333 34.136 2.815 34.2326 2.835 34.336C2.85833 34.4393 2.88 34.5493 2.9 34.666C2.92333 34.5493 2.94667 34.4393 2.97 34.336C2.99667 34.2293 3.025 34.1326 3.055 34.046L4.74 29.066C4.76 29.0093 4.79833 28.9576 4.855 28.911C4.915 28.861 4.98667 28.836 5.07 28.836H5.35C5.43667 28.836 5.50667 28.8576 5.56 28.901C5.61333 28.9443 5.65333 28.9993 5.68 29.066L7.36 34.046C7.39 34.1326 7.41667 34.226 7.44 34.326C7.46667 34.426 7.49167 34.531 7.515 34.641C7.53167 34.531 7.55 34.426 7.57 34.326C7.59 34.226 7.61167 34.1326 7.635 34.046L9.12 29.066C9.13667 29.006 9.17333 28.9526 9.23 28.906C9.29 28.8593 9.36167 28.836 9.445 28.836H10.2ZM13.2352 33.721C12.8252 33.7343 12.4752 33.7676 12.1852 33.821C11.8985 33.871 11.6635 33.9376 11.4802 34.021C11.3002 34.1043 11.1685 34.2026 11.0852 34.316C11.0052 34.4293 10.9652 34.556 10.9652 34.696C10.9652 34.8293 10.9868 34.9443 11.0302 35.041C11.0735 35.1376 11.1318 35.2176 11.2052 35.281C11.2818 35.341 11.3702 35.386 11.4702 35.416C11.5735 35.4426 11.6835 35.456 11.8002 35.456C11.9568 35.456 12.1002 35.441 12.2302 35.411C12.3602 35.3776 12.4818 35.331 12.5952 35.271C12.7118 35.211 12.8218 35.1393 12.9252 35.056C13.0318 34.9726 13.1352 34.8776 13.2352 34.771V33.721ZM10.3602 31.651C10.6402 31.381 10.9418 31.1793 11.2652 31.046C11.5885 30.9126 11.9468 30.846 12.3402 30.846C12.6235 30.846 12.8752 30.8926 13.0952 30.986C13.3152 31.0793 13.5002 31.2093 13.6502 31.376C13.8002 31.5426 13.9135 31.7443 13.9902 31.981C14.0668 32.2176 14.1052 32.4776 14.1052 32.761V36.001H13.7102C13.6235 36.001 13.5568 35.9876 13.5102 35.961C13.4635 35.931 13.4268 35.8743 13.4002 35.791L13.3002 35.311C13.1668 35.4343 13.0368 35.5443 12.9102 35.641C12.7835 35.7343 12.6502 35.8143 12.5102 35.881C12.3702 35.9443 12.2202 35.9926 12.0602 36.026C11.9035 36.0626 11.7285 36.081 11.5352 36.081C11.3385 36.081 11.1535 36.0543 10.9802 36.001C10.8068 35.9443 10.6552 35.861 10.5252 35.751C10.3985 35.641 10.2968 35.5026 10.2202 35.336C10.1468 35.166 10.1102 34.966 10.1102 34.736C10.1102 34.536 10.1652 34.3443 10.2752 34.161C10.3852 33.9743 10.5635 33.8093 10.8102 33.666C11.0568 33.5226 11.3785 33.406 11.7752 33.316C12.1718 33.2226 12.6585 33.1693 13.2352 33.156V32.761C13.2352 32.3676 13.1502 32.071 12.9802 31.871C12.8102 31.6676 12.5618 31.566 12.2352 31.566C12.0152 31.566 11.8302 31.5943 11.6802 31.651C11.5335 31.7043 11.4052 31.766 11.2952 31.836C11.1885 31.9026 11.0952 31.9643 11.0152 32.021C10.9385 32.0743 10.8618 32.101 10.7852 32.101C10.7252 32.101 10.6735 32.086 10.6302 32.056C10.5868 32.0226 10.5502 31.9826 10.5202 31.936L10.3602 31.651ZM16.3809 28.636V36.001H15.4909V28.636H16.3809ZM18.7441 28.636V36.001H17.8541V28.636H18.7441ZM23.5774 32.916C23.5774 32.7093 23.5474 32.521 23.4874 32.351C23.4308 32.1776 23.3458 32.0293 23.2324 31.906C23.1224 31.7793 22.9874 31.6826 22.8274 31.616C22.6674 31.546 22.4858 31.511 22.2824 31.511C21.8558 31.511 21.5174 31.636 21.2674 31.886C21.0208 32.1326 20.8674 32.476 20.8074 32.916H23.5774ZM24.2974 35.291C24.1874 35.4243 24.0558 35.541 23.9024 35.641C23.7491 35.7376 23.5841 35.8176 23.4074 35.881C23.2341 35.9443 23.0541 35.991 22.8674 36.021C22.6808 36.0543 22.4958 36.071 22.3124 36.071C21.9624 36.071 21.6391 36.0126 21.3424 35.896C21.0491 35.776 20.7941 35.6026 20.5774 35.376C20.3641 35.146 20.1974 34.8626 20.0774 34.526C19.9574 34.1893 19.8974 33.8026 19.8974 33.366C19.8974 33.0126 19.9508 32.6826 20.0574 32.376C20.1674 32.0693 20.3241 31.8043 20.5274 31.581C20.7308 31.3543 20.9791 31.1776 21.2724 31.051C21.5658 30.921 21.8958 30.856 22.2624 30.856C22.5658 30.856 22.8458 30.9076 23.1024 31.011C23.3624 31.111 23.5858 31.2576 23.7724 31.451C23.9624 31.641 24.1108 31.8776 24.2174 32.161C24.3241 32.441 24.3774 32.761 24.3774 33.121C24.3774 33.261 24.3624 33.3543 24.3324 33.401C24.3024 33.4476 24.2458 33.471 24.1624 33.471H20.7774C20.7874 33.791 20.8308 34.0693 20.9074 34.306C20.9874 34.5426 21.0974 34.741 21.2374 34.901C21.3774 35.0576 21.5441 35.176 21.7374 35.256C21.9308 35.3326 22.1474 35.371 22.3874 35.371C22.6108 35.371 22.8024 35.346 22.9624 35.296C23.1258 35.2426 23.2658 35.186 23.3824 35.126C23.4991 35.066 23.5958 35.011 23.6724 34.961C23.7524 34.9076 23.8208 34.881 23.8774 34.881C23.9508 34.881 24.0074 34.9093 24.0474 34.966L24.2974 35.291ZM26.9866 36.081C26.5866 36.081 26.2782 35.9693 26.0616 35.746C25.8482 35.5226 25.7416 35.201 25.7416 34.781V31.681H25.1316C25.0782 31.681 25.0332 31.666 24.9966 31.636C24.9599 31.6026 24.9416 31.5526 24.9416 31.486V31.131L25.7716 31.026L25.9766 29.461C25.9866 29.411 26.0082 29.371 26.0416 29.341C26.0782 29.3076 26.1249 29.291 26.1816 29.291H26.6316V31.036H28.0966V31.681H26.6316V34.721C26.6316 34.9343 26.6832 35.0926 26.7866 35.196C26.8899 35.2993 27.0232 35.351 27.1866 35.351C27.2799 35.351 27.3599 35.3393 27.4266 35.316C27.4966 35.2893 27.5566 35.261 27.6066 35.231C27.6566 35.201 27.6982 35.1743 27.7316 35.151C27.7682 35.1243 27.7999 35.111 27.8266 35.111C27.8732 35.111 27.9149 35.1393 27.9516 35.196L28.2116 35.621C28.0582 35.7643 27.8732 35.8776 27.6566 35.961C27.4399 36.041 27.2166 36.081 26.9866 36.081Z" fill="white"/>
<path d="M26.547 18.0008H22.547C21.4119 18.0701 20.2953 17.6889 19.4396 16.9401C18.5838 16.1912 18.0579 15.135 17.976 14.0008C18.0579 12.8666 18.5838 11.8104 19.4396 11.0615C20.2953 10.3126 21.4119 9.93148 22.547 10.0008H26.547C26.6884 10.0088 26.8272 9.96078 26.9335 9.86721C27.0398 9.77365 27.105 9.64202 27.115 9.50078V8.00078C27.079 7.46644 26.8428 6.96534 26.4535 6.59755C26.0642 6.22977 25.5505 6.02237 25.015 6.01678L21.732 1.00078C21.4082 0.524046 20.9133 0.190288 20.35 0.0687812C19.771 -0.0691097 19.1619 0.00171444 18.63 0.268781L7.38 6.00078H5.404C4.83585 5.96504 4.27658 6.15513 3.84789 6.5297C3.4192 6.90426 3.1558 7.43297 3.115 8.00078V20.0008C3.15581 20.568 3.41879 21.0963 3.84682 21.4708C4.27485 21.8452 4.83335 22.0357 5.401 22.0008H24.832C25.3991 22.0349 25.9569 21.844 26.3842 21.4697C26.8116 21.0953 27.0742 20.5675 27.115 20.0008V18.5008C27.105 18.3595 27.0398 18.2279 26.9335 18.1343C26.8272 18.0408 26.6884 17.9928 26.547 18.0008ZM22.441 4.10078L23.686 6.00078H18.706L22.441 4.10078ZM9.651 6.00078L19.205 1.13478C19.4673 1.0022 19.7681 0.966777 20.054 1.03478C20.3339 1.09535 20.5796 1.26156 20.74 1.49878L11.907 6.00078H9.651Z" fill="url(#paint0_linear)"/>
<path d="M26.826 11.0786H22.872C22.4475 11.0271 22.017 11.0663 21.6088 11.1935C21.2005 11.3208 20.824 11.5332 20.504 11.8167C20.1839 12.1003 19.9277 12.4485 19.7522 12.8384C19.5767 13.2283 19.486 13.6511 19.486 14.0786C19.486 14.5062 19.5767 14.9289 19.7522 15.3188C19.9277 15.7088 20.1839 16.057 20.504 16.3406C20.824 16.6241 21.2005 16.8365 21.6088 16.9637C22.017 17.091 22.4475 17.1301 22.872 17.0786H26.826C27.2492 17.1025 27.6647 16.9583 27.9821 16.6774C28.2995 16.3965 28.4932 16.0016 28.521 15.5786V12.5786C28.4932 12.1557 28.2995 11.7608 27.9821 11.4799C27.6647 11.199 27.2492 11.0548 26.826 11.0786ZM22.872 15.0786C22.6796 15.055 22.498 14.9762 22.3493 14.8519C22.2005 14.7276 22.0908 14.5629 22.0333 14.3777C21.9758 14.1926 21.973 13.9947 22.0252 13.808C22.0774 13.6212 22.1825 13.4536 22.3277 13.3251C22.4729 13.1966 22.6521 13.1127 22.8438 13.0836C23.0355 13.0545 23.2315 13.0813 23.4083 13.1609C23.5851 13.2405 23.7352 13.3694 23.8405 13.5322C23.9458 13.695 24.0019 13.8847 24.002 14.0786C23.9835 14.3608 23.8542 14.6242 23.6424 14.8115C23.4305 14.9988 23.1533 15.0948 22.871 15.0786H22.872Z" fill="url(#paint1_linear)"/>
<defs>
<linearGradient id="paint0_linear" x1="3.115" y1="0" x2="3.115" y2="22.0049" gradientUnits="userSpaceOnUse">
<stop stop-color="white"/>
<stop offset="1" stop-color="white"/>
</linearGradient>
<linearGradient id="paint1_linear" x1="19.486" y1="11.0566" x2="19.486" y2="17.1006" gradientUnits="userSpaceOnUse">
<stop stop-color="white"/>
<stop offset="1" stop-color="white"/>
</linearGradient>
</defs>
</svg>
