<svg width="66" height="40" viewBox="0 0 66 40" fill="currentColor" xmlns="http://www.w3.org/2000/svg">
<path d="M24.5554 36.5083C24.6087 36.5083 24.6554 36.5299 24.6954 36.5733L25.0804 36.9883C24.787 37.3283 24.4304 37.5933 24.0104 37.7833C23.5937 37.9733 23.0887 38.0683 22.4954 38.0683C21.982 38.0683 21.5154 37.9799 21.0954 37.8033C20.6754 37.6233 20.317 37.3733 20.0204 37.0533C19.7237 36.7299 19.4937 36.3433 19.3304 35.8933C19.167 35.4433 19.0854 34.9483 19.0854 34.4083C19.0854 33.8683 19.1704 33.3733 19.3404 32.9233C19.5104 32.4733 19.7487 32.0866 20.0554 31.7633C20.3654 31.4399 20.7354 31.1899 21.1654 31.0133C21.5954 30.8333 22.0704 30.7433 22.5904 30.7433C23.1004 30.7433 23.5504 30.8249 23.9404 30.9883C24.3304 31.1516 24.6737 31.3733 24.9704 31.6533L24.6504 32.0983C24.6304 32.1316 24.6037 32.1599 24.5704 32.1833C24.5404 32.2033 24.4987 32.2133 24.4454 32.2133C24.3854 32.2133 24.312 32.1816 24.2254 32.1183C24.1387 32.0516 24.0254 31.9783 23.8854 31.8983C23.7454 31.8183 23.5704 31.7466 23.3604 31.6833C23.1504 31.6166 22.892 31.5833 22.5854 31.5833C22.2154 31.5833 21.877 31.6483 21.5704 31.7783C21.2637 31.9049 20.9987 32.0899 20.7754 32.3333C20.5554 32.5766 20.3837 32.8733 20.2604 33.2233C20.137 33.5733 20.0754 33.9683 20.0754 34.4083C20.0754 34.8549 20.1387 35.2533 20.2654 35.6033C20.3954 35.9533 20.5704 36.2499 20.7904 36.4933C21.0137 36.7333 21.2754 36.9166 21.5754 37.0433C21.8787 37.1699 22.2054 37.2333 22.5554 37.2333C22.7687 37.2333 22.9604 37.2216 23.1304 37.1983C23.3037 37.1716 23.462 37.1316 23.6054 37.0783C23.752 37.0249 23.887 36.9583 24.0104 36.8783C24.137 36.7949 24.262 36.6966 24.3854 36.5833C24.442 36.5333 24.4987 36.5083 24.5554 36.5083ZM26.89 33.5983C27.1067 33.3683 27.3467 33.1849 27.61 33.0483C27.8734 32.9116 28.1767 32.8433 28.52 32.8433C28.7967 32.8433 29.04 32.8899 29.25 32.9833C29.4634 33.0733 29.64 33.2033 29.78 33.3733C29.9234 33.5399 30.0317 33.7416 30.105 33.9783C30.1784 34.2149 30.215 34.4766 30.215 34.7633V37.9883H29.32V34.7633C29.32 34.3799 29.2317 34.0833 29.055 33.8733C28.8817 33.6599 28.6167 33.5533 28.26 33.5533C27.9967 33.5533 27.75 33.6166 27.52 33.7433C27.2934 33.8699 27.0834 34.0416 26.89 34.2583V37.9883H25.995V30.6233H26.89V33.5983ZM34.3162 35.7083C33.9062 35.7216 33.5562 35.7549 33.2662 35.8083C32.9795 35.8583 32.7445 35.9249 32.5612 36.0083C32.3812 36.0916 32.2495 36.1899 32.1662 36.3033C32.0862 36.4166 32.0462 36.5433 32.0462 36.6833C32.0462 36.8166 32.0679 36.9316 32.1112 37.0283C32.1545 37.1249 32.2129 37.2049 32.2862 37.2683C32.3629 37.3283 32.4512 37.3733 32.5512 37.4033C32.6545 37.4299 32.7645 37.4433 32.8812 37.4433C33.0379 37.4433 33.1812 37.4283 33.3112 37.3983C33.4412 37.3649 33.5629 37.3183 33.6762 37.2583C33.7929 37.1983 33.9029 37.1266 34.0062 37.0433C34.1129 36.9599 34.2162 36.8649 34.3162 36.7583V35.7083ZM31.4412 33.6383C31.7212 33.3683 32.0229 33.1666 32.3462 33.0333C32.6695 32.8999 33.0279 32.8333 33.4212 32.8333C33.7045 32.8333 33.9562 32.8799 34.1762 32.9733C34.3962 33.0666 34.5812 33.1966 34.7312 33.3633C34.8812 33.5299 34.9945 33.7316 35.0712 33.9683C35.1479 34.2049 35.1862 34.4649 35.1862 34.7483V37.9883H34.7912C34.7045 37.9883 34.6379 37.9749 34.5912 37.9483C34.5445 37.9183 34.5079 37.8616 34.4812 37.7783L34.3812 37.2983C34.2479 37.4216 34.1179 37.5316 33.9912 37.6283C33.8645 37.7216 33.7312 37.8016 33.5912 37.8683C33.4512 37.9316 33.3012 37.9799 33.1412 38.0133C32.9845 38.0499 32.8095 38.0683 32.6162 38.0683C32.4195 38.0683 32.2345 38.0416 32.0612 37.9883C31.8879 37.9316 31.7362 37.8483 31.6062 37.7383C31.4795 37.6283 31.3779 37.4899 31.3012 37.3233C31.2279 37.1533 31.1912 36.9533 31.1912 36.7233C31.1912 36.5233 31.2462 36.3316 31.3562 36.1483C31.4662 35.9616 31.6445 35.7966 31.8912 35.6533C32.1379 35.5099 32.4595 35.3933 32.8562 35.3033C33.2529 35.2099 33.7395 35.1566 34.3162 35.1433V34.7483C34.3162 34.3549 34.2312 34.0583 34.0612 33.8583C33.8912 33.6549 33.6429 33.5533 33.3162 33.5533C33.0962 33.5533 32.9112 33.5816 32.7612 33.6383C32.6145 33.6916 32.4862 33.7533 32.3762 33.8233C32.2695 33.8899 32.1762 33.9516 32.0962 34.0083C32.0195 34.0616 31.9429 34.0883 31.8662 34.0883C31.8062 34.0883 31.7545 34.0733 31.7112 34.0433C31.6679 34.0099 31.6312 33.9699 31.6012 33.9233L31.4412 33.6383ZM37.3869 33.9383C37.5469 33.5916 37.7436 33.3216 37.9769 33.1283C38.2102 32.9316 38.4952 32.8333 38.8319 32.8333C38.9386 32.8333 39.0402 32.8449 39.1369 32.8683C39.2369 32.8916 39.3252 32.9283 39.4019 32.9783L39.3369 33.6433C39.3169 33.7266 39.2669 33.7683 39.1869 33.7683C39.1402 33.7683 39.0719 33.7583 38.9819 33.7383C38.8919 33.7183 38.7902 33.7083 38.6769 33.7083C38.5169 33.7083 38.3736 33.7316 38.2469 33.7783C38.1236 33.8249 38.0119 33.8949 37.9119 33.9883C37.8152 34.0783 37.7269 34.1916 37.6469 34.3283C37.5702 34.4616 37.5002 34.6149 37.4369 34.7883V37.9883H36.5419V32.9233H37.0519C37.1486 32.9233 37.2152 32.9416 37.2519 32.9783C37.2886 33.0149 37.3136 33.0783 37.3269 33.1683L37.3869 33.9383ZM41.7395 38.0683C41.3395 38.0683 41.0312 37.9566 40.8145 37.7333C40.6012 37.5099 40.4945 37.1883 40.4945 36.7683V33.6683H39.8845C39.8312 33.6683 39.7862 33.6533 39.7495 33.6233C39.7128 33.5899 39.6945 33.5399 39.6945 33.4733V33.1183L40.5245 33.0133L40.7295 31.4483C40.7395 31.3983 40.7612 31.3583 40.7945 31.3283C40.8312 31.2949 40.8778 31.2783 40.9345 31.2783H41.3845V33.0233H42.8495V33.6683H41.3845V36.7083C41.3845 36.9216 41.4362 37.0799 41.5395 37.1833C41.6428 37.2866 41.7762 37.3383 41.9395 37.3383C42.0328 37.3383 42.1128 37.3266 42.1795 37.3033C42.2495 37.2766 42.3095 37.2483 42.3595 37.2183C42.4095 37.1883 42.4512 37.1616 42.4845 37.1383C42.5212 37.1116 42.5528 37.0983 42.5795 37.0983C42.6262 37.0983 42.6678 37.1266 42.7045 37.1833L42.9645 37.6083C42.8112 37.7516 42.6262 37.8649 42.4095 37.9483C42.1928 38.0283 41.9695 38.0683 41.7395 38.0683ZM46.7185 33.7583C46.6785 33.8316 46.6168 33.8683 46.5335 33.8683C46.4835 33.8683 46.4268 33.8499 46.3635 33.8133C46.3001 33.7766 46.2218 33.7366 46.1285 33.6933C46.0385 33.6466 45.9301 33.6049 45.8035 33.5683C45.6768 33.5283 45.5268 33.5083 45.3535 33.5083C45.2035 33.5083 45.0685 33.5283 44.9485 33.5683C44.8285 33.6049 44.7251 33.6566 44.6385 33.7233C44.5551 33.7899 44.4901 33.8683 44.4435 33.9583C44.4001 34.0449 44.3785 34.1399 44.3785 34.2433C44.3785 34.3733 44.4151 34.4816 44.4885 34.5683C44.5651 34.6549 44.6651 34.7299 44.7885 34.7933C44.9118 34.8566 45.0518 34.9133 45.2085 34.9633C45.3651 35.0099 45.5251 35.0616 45.6885 35.1183C45.8551 35.1716 46.0168 35.2316 46.1735 35.2983C46.3301 35.3649 46.4701 35.4483 46.5935 35.5483C46.7168 35.6483 46.8151 35.7716 46.8885 35.9183C46.9651 36.0616 47.0035 36.2349 47.0035 36.4383C47.0035 36.6716 46.9618 36.8883 46.8785 37.0883C46.7951 37.2849 46.6718 37.4566 46.5085 37.6033C46.3451 37.7466 46.1451 37.8599 45.9085 37.9433C45.6718 38.0266 45.3985 38.0683 45.0885 38.0683C44.7351 38.0683 44.4151 38.0116 44.1285 37.8983C43.8418 37.7816 43.5985 37.6333 43.3985 37.4533L43.6085 37.1133C43.6351 37.0699 43.6668 37.0366 43.7035 37.0133C43.7401 36.9899 43.7868 36.9783 43.8435 36.9783C43.9035 36.9783 43.9668 37.0016 44.0335 37.0483C44.1001 37.0949 44.1801 37.1466 44.2735 37.2033C44.3701 37.2599 44.4868 37.3116 44.6235 37.3583C44.7601 37.4049 44.9301 37.4283 45.1335 37.4283C45.3068 37.4283 45.4585 37.4066 45.5885 37.3633C45.7185 37.3166 45.8268 37.2549 45.9135 37.1783C46.0001 37.1016 46.0635 37.0133 46.1035 36.9133C46.1468 36.8133 46.1685 36.7066 46.1685 36.5933C46.1685 36.4533 46.1301 36.3383 46.0535 36.2483C45.9801 36.1549 45.8818 36.0766 45.7585 36.0133C45.6351 35.9466 45.4935 35.8899 45.3335 35.8433C45.1768 35.7933 45.0151 35.7416 44.8485 35.6883C44.6851 35.6349 44.5235 35.5749 44.3635 35.5083C44.2068 35.4383 44.0668 35.3516 43.9435 35.2483C43.8201 35.1449 43.7201 35.0183 43.6435 34.8683C43.5701 34.7149 43.5335 34.5299 43.5335 34.3133C43.5335 34.1199 43.5735 33.9349 43.6535 33.7583C43.7335 33.5783 43.8501 33.4216 44.0035 33.2883C44.1568 33.1516 44.3451 33.0433 44.5685 32.9633C44.7918 32.8833 45.0468 32.8433 45.3335 32.8433C45.6668 32.8433 45.9651 32.8966 46.2285 33.0033C46.4951 33.1066 46.7251 33.2499 46.9185 33.4333L46.7185 33.7583Z" fill="currentColor"/>
<path d="M24.7521 5.94141C25.2651 6.46041 25.7401 6.95441 26.2341 7.42941C26.3831 7.57341 26.4021 7.62941 26.1961 7.72941C25.6251 8.01241 25.0591 8.31541 24.4961 8.61741C24.4732 8.63503 24.447 8.64791 24.4191 8.65529C24.3912 8.66267 24.3621 8.66442 24.3335 8.66041C24.3049 8.65641 24.2774 8.64674 24.2526 8.63197C24.2278 8.6172 24.2062 8.59763 24.1891 8.57441C23.2701 7.65041 22.3441 6.73841 21.4231 5.81141C21.2906 5.6829 21.185 5.5293 21.1125 5.35958C21.04 5.18986 21.0019 5.0074 21.0006 4.82284C20.9993 4.63828 21.0348 4.45531 21.1049 4.28458C21.175 4.11385 21.2784 3.95878 21.4091 3.82841C22.5744 2.65641 23.7477 1.48974 24.9291 0.328411C25.1391 0.118227 25.424 9.38241e-05 25.7212 5.58639e-08C26.0184 -9.37123e-05 26.3034 0.117859 26.5136 0.327911C26.7237 0.537962 26.8419 0.822906 26.842 1.12006C26.8421 1.41721 26.7241 1.70223 26.5141 1.91241C25.9891 2.44041 25.4571 2.96341 24.9341 3.48741C24.8811 3.54041 24.8281 3.59741 24.7421 3.68741H33.8841C33.8461 3.77841 33.7741 3.78741 33.7211 3.81741C32.4311 4.48408 31.1424 5.15308 29.8551 5.82441C29.7013 5.9062 29.5292 5.9475 29.3551 5.94441C27.8361 5.93641 26.3141 5.94141 24.7521 5.94141Z" fill="currentColor"/>
<path d="M41.2331 20.3024H32.076C32.182 20.2404 32.2291 20.2024 32.2821 20.1774C33.5774 19.5054 34.8724 18.8301 36.1671 18.1514C36.2999 18.0805 36.4485 18.0441 36.5991 18.0454C38.0621 18.0454 39.5251 18.0454 40.9881 18.0454H41.2041C41.2141 17.9454 41.1321 17.9154 41.0891 17.8674C40.633 17.4064 40.1731 16.9504 39.7121 16.4994C39.6061 16.3994 39.6061 16.3554 39.7411 16.2834C40.3361 15.9764 40.9311 15.6644 41.5201 15.3474C41.5405 15.3325 41.5637 15.3218 41.5883 15.3159C41.613 15.3099 41.6385 15.309 41.6635 15.313C41.6885 15.317 41.7125 15.3258 41.734 15.3391C41.7556 15.3524 41.7743 15.3699 41.7891 15.3904C42.7201 16.3214 43.6641 17.2484 44.5891 18.1844C44.7202 18.3145 44.824 18.4695 44.8944 18.6403C44.9649 18.8111 45.0005 18.9941 44.9992 19.1789C44.9979 19.3636 44.9597 19.5462 44.8869 19.7159C44.814 19.8857 44.708 20.0392 44.5751 20.1674C43.4144 21.3294 42.2521 22.4851 41.0881 23.6344C40.9849 23.7437 40.8609 23.8311 40.7233 23.8915C40.5858 23.9519 40.4375 23.9841 40.2873 23.9861C40.1371 23.9881 39.9879 23.9599 39.8488 23.9032C39.7097 23.8465 39.5834 23.7625 39.4773 23.6561C39.3713 23.5496 39.2877 23.423 39.2316 23.2836C39.1754 23.1443 39.1478 22.9951 39.1504 22.8449C39.153 22.6947 39.1857 22.5465 39.2466 22.4092C39.3075 22.2719 39.3954 22.1482 39.5051 22.0454C40.0761 21.4734 40.6381 20.9024 41.2331 20.3024Z" fill="currentColor"/>
<path d="M30.838 17.6804L33.8211 16.1294C33.9096 16.0924 33.9946 16.0475 34.075 15.9954C34.5705 15.7271 35.1095 15.5484 35.6671 15.4674C35.7581 15.4384 35.7771 15.5054 35.8061 15.5584C35.8731 15.6834 35.936 15.8124 36.012 15.9374C36.0234 15.9652 36.0405 15.9903 36.0623 16.011C36.084 16.0317 36.1099 16.0476 36.1383 16.0576C36.1666 16.0677 36.1967 16.0716 36.2267 16.0691C36.2566 16.0666 36.2857 16.0579 36.312 16.0434C36.451 15.9764 36.5121 15.8434 36.4181 15.7264C36.1251 15.3514 36.2791 15.1404 36.5911 14.8574C36.8692 14.5994 37.1806 14.3797 37.5171 14.2044C38.5341 13.6714 39.5461 13.1284 40.5631 12.5954C40.6401 12.5574 40.7171 12.5234 40.8081 12.4804C40.8326 12.9325 40.9383 13.3766 41.12 13.7914C41.178 13.9164 41.2301 13.9304 41.3501 13.8684C42.2227 13.4077 43.0987 12.9484 43.978 12.4904C44.103 12.4234 44.108 12.3754 44.045 12.2604C43.5844 11.3937 43.1321 10.523 42.6881 9.64835C42.6111 9.49435 42.5391 9.49436 42.4191 9.58636C42.3521 9.63936 42.2701 9.68636 42.1981 9.73036C41.8911 9.95136 41.886 9.95136 41.704 9.60036C41.522 9.24936 41.3251 8.86136 41.1241 8.50036C41.0571 8.38036 41.0571 8.33236 41.2101 8.29436C41.3866 8.24347 41.5597 8.18101 41.728 8.10736C41.828 8.07336 41.838 8.02536 41.786 7.92936C41.316 7.03136 40.8477 6.13136 40.381 5.22936C40.333 5.12936 40.2811 5.12336 40.1941 5.18136C40.1481 5.2136 40.098 5.2395 40.0451 5.25836C39.8871 5.32536 39.7001 5.52736 39.5891 5.45036C39.4361 5.34436 39.3781 5.10936 39.2721 4.92736C39.2101 4.82136 39.3061 4.80736 39.3631 4.77836C39.6461 4.62936 39.9241 4.47836 40.2121 4.33136C40.2649 4.29015 40.3269 4.26243 40.3928 4.25061C40.4587 4.23879 40.5265 4.24321 40.5904 4.2635C40.6542 4.28379 40.7121 4.31934 40.7591 4.36706C40.8061 4.41478 40.8407 4.47323 40.8601 4.53735L42.3281 7.36036C43.1821 8.99303 44.0344 10.6264 44.885 12.2604C45.067 12.6114 45.0151 12.7694 44.6641 12.9514C39.4554 15.674 34.2464 18.395 29.0371 21.1144C28.6921 21.2924 28.5191 21.2394 28.3371 20.8984C28.1021 20.4474 27.8671 19.9914 27.6271 19.5394C27.5651 19.4244 27.5791 19.3664 27.6991 19.3044C28.1991 19.0304 28.1991 19.0264 28.4621 19.5344C28.5821 19.7604 28.707 19.9854 28.812 20.2164C28.865 20.3314 28.9171 20.3414 29.0281 20.2834C29.9107 19.8167 30.7947 19.3557 31.6801 18.9004C31.8001 18.8384 31.8001 18.7854 31.7381 18.6844C31.5025 18.2971 31.1974 17.9567 30.838 17.6804Z" fill="currentColor"/>
<path d="M41.6531 10.7563C40.3244 8.2116 38.9974 5.66526 37.6721 3.11726C37.4721 2.73326 37.3171 2.68027 36.9291 2.88227L21.3271 11.0353C20.9861 11.2133 20.9271 11.3763 21.1061 11.7073C22.4494 14.2806 23.7924 16.8559 25.1351 19.4333C25.3081 19.7693 25.4801 19.8223 25.8111 19.6443C29.9264 17.4983 34.0451 15.3473 38.1671 13.1913C39.2704 12.6153 40.3737 12.0406 41.4771 11.4673C41.5622 11.4356 41.6361 11.3796 41.6894 11.3061C41.7428 11.2326 41.7733 11.145 41.7771 11.0543C41.7545 10.9481 41.7125 10.8471 41.6531 10.7563ZM33.6331 13.1183C33.4904 13.3222 33.3098 13.4967 33.1011 13.6323C32.9671 13.7183 32.9711 13.7953 33.0431 13.9153C33.1051 14.0153 33.1531 14.1263 33.2061 14.2323C33.2235 14.2593 33.2347 14.2898 33.2391 14.3216C33.2434 14.3535 33.2407 14.3859 33.2312 14.4166C33.2217 14.4473 33.2055 14.4755 33.1839 14.4993C33.1623 14.5231 33.1357 14.5418 33.1061 14.5543C33.0807 14.5712 33.0518 14.5822 33.0215 14.5863C32.9913 14.5904 32.9605 14.5875 32.9316 14.5778C32.9026 14.5682 32.8762 14.552 32.8545 14.5306C32.8327 14.5092 32.8162 14.4831 32.8061 14.4543C32.6671 13.9543 32.3651 14.0123 31.9521 14.0993C31.6464 14.1733 31.3258 14.1559 31.03 14.0492C30.7341 13.9425 30.4761 13.7513 30.2881 13.4993C30.2185 13.4326 30.169 13.3479 30.1452 13.2545C30.1213 13.1612 30.1241 13.0631 30.1531 12.9713C30.1754 12.89 30.2185 12.8159 30.2781 12.7563C30.3378 12.6967 30.4119 12.6537 30.4932 12.6314C30.5745 12.6091 30.6602 12.6083 30.7419 12.6292C30.8235 12.65 30.8984 12.6917 30.9591 12.7503C31.0691 12.8503 31.1701 12.9423 31.2801 13.0383C31.4303 13.1713 31.6177 13.2551 31.8171 13.2783C31.9171 13.2923 32.0471 13.3313 32.1101 13.2443C32.1731 13.1573 32.0571 13.0713 32.0191 12.9903C31.8191 12.5903 31.6021 12.1983 31.4051 11.7993C31.3969 11.7737 31.3835 11.7501 31.3657 11.73C31.348 11.7099 31.3262 11.6937 31.3019 11.6825C31.2775 11.6712 31.2511 11.6651 31.2243 11.6645C31.1975 11.664 31.1709 11.669 31.1461 11.6793C30.7884 11.7661 30.4174 11.7837 30.0531 11.7313C29.7953 11.6598 29.5605 11.5229 29.3713 11.3339C29.1821 11.1448 29.0451 10.91 28.9735 10.6523C28.902 10.3947 28.8983 10.1228 28.9629 9.86331C29.0275 9.60378 29.1581 9.36537 29.3421 9.17127C29.4811 9.03227 29.7161 8.93626 29.7741 8.77726C29.8321 8.61826 29.6251 8.43626 29.5581 8.25426C29.546 8.22671 29.5396 8.19705 29.5392 8.167C29.5387 8.13694 29.5442 8.10709 29.5554 8.07918C29.5665 8.05127 29.5831 8.02586 29.6042 8.00442C29.6252 7.98297 29.6504 7.96593 29.6781 7.95427C29.7034 7.93728 29.7323 7.92633 29.7626 7.92225C29.7928 7.91817 29.8236 7.92106 29.8526 7.93072C29.8815 7.94037 29.9079 7.95652 29.9297 7.97794C29.9514 7.99935 29.968 8.02546 29.9781 8.05426C30.1171 8.52926 30.3951 8.52026 30.8031 8.40026C31.0494 8.33985 31.3076 8.34818 31.5495 8.42435C31.7914 8.50052 32.0078 8.64162 32.1751 8.83226C32.221 8.87731 32.2577 8.93097 32.2829 8.99017C32.3081 9.04937 32.3214 9.11297 32.3221 9.17732C32.3227 9.24167 32.3107 9.30551 32.2867 9.36521C32.2627 9.42492 32.2271 9.4793 32.1821 9.52526C32.137 9.57123 32.0834 9.60787 32.0242 9.6331C31.965 9.65832 31.9014 9.67164 31.837 9.67229C31.7727 9.67294 31.7088 9.66091 31.6491 9.63688C31.5894 9.61286 31.535 9.57731 31.4891 9.53227C31.3815 9.40761 31.2425 9.31404 31.0865 9.26129C30.9305 9.20853 30.7632 9.19851 30.6021 9.23226C30.8421 9.68826 31.0721 10.1323 31.3021 10.5763C31.3551 10.6823 31.4321 10.6383 31.5021 10.6243C31.8795 10.5189 32.2742 10.4897 32.6631 10.5383C32.9278 10.6016 33.1729 10.7289 33.3769 10.9091C33.5809 11.0892 33.7375 11.3167 33.833 11.5716C33.9284 11.8265 33.9599 12.1009 33.9245 12.3707C33.8891 12.6406 33.788 12.8976 33.6301 13.1193L33.6331 13.1183Z" fill="currentColor"/>
<path d="M32.153 11.5153C32.633 11.5153 32.872 11.6733 32.997 12.0153C33.0494 12.1887 33.0496 12.3736 32.9975 12.547C32.9454 12.7204 32.8433 12.8746 32.704 12.9903C32.627 13.0523 32.594 13.0483 32.546 12.9613C32.3254 12.5293 32.1 12.096 31.87 11.6613C31.817 11.5553 31.87 11.5313 31.952 11.5223C32.034 11.5133 32.129 11.5153 32.153 11.5153Z" fill="currentColor"/>
<path d="M30.5081 10.7814C30.3693 10.7877 30.2323 10.7484 30.118 10.6694C30.0037 10.5905 29.9184 10.4764 29.8751 10.3444C29.8237 10.2096 29.8131 10.0626 29.8446 9.92181C29.876 9.781 29.9482 9.65254 30.0521 9.55241C30.1341 9.45241 30.1861 9.44641 30.2521 9.57641C30.4051 9.89341 30.5731 10.2004 30.7361 10.5084C30.8721 10.7764 30.8671 10.7854 30.5081 10.7814Z" fill="currentColor"/>
</svg>
