<svg width="62" height="62" viewBox="0 0 62 62" fill="none" xmlns="http://www.w3.org/2000/svg">
<path d="M31 62C48.1208 62 62 48.1208 62 31C62 13.8792 48.1208 0 31 0C13.8792 0 0 13.8792 0 31C0 48.1208 13.8792 62 31 62Z" fill="url(#paint0_linear)"/>
<g filter="url(#filter0_d)">
<path d="M13.703 32.7399C13.856 32.7269 13.916 32.5919 14.003 32.4979C19.481 26.9699 24.9567 21.4352 30.43 15.8939C30.663 15.6589 30.776 15.6449 31.015 15.8869C32.93 17.8479 34.864 19.7869 36.792 21.7379C36.878 21.8249 36.965 21.9059 37.058 21.9929C37.158 21.8789 37.111 21.7649 37.111 21.6639C37.111 20.4639 37.118 19.2639 37.104 18.0699C37.104 17.8149 37.17 17.7539 37.416 17.7539C38.626 17.7669 39.829 17.7669 41.039 17.7539C41.292 17.7539 41.371 17.8079 41.371 18.0829C41.358 20.7229 41.371 23.3689 41.358 26.0089C41.3545 26.1234 41.3758 26.2373 41.4205 26.3428C41.4652 26.4483 41.5323 26.5428 41.617 26.6199C43.558 28.5679 45.493 30.5289 47.428 32.4839C47.514 32.5709 47.608 32.6449 47.701 32.7259C47.601 32.8539 47.495 32.8069 47.408 32.8069C46.225 32.8139 45.035 32.7999 43.851 32.8139C43.7375 32.8191 43.6243 32.7989 43.5197 32.7548C43.415 32.7107 43.3215 32.6437 43.246 32.5589C39.1793 28.4416 35.1083 24.3216 31.033 20.1989C30.78 19.9439 30.661 19.9709 30.421 20.2119C26.3543 24.3366 22.2833 28.4566 18.208 32.5719C18.1367 32.6539 18.0475 32.7184 17.9473 32.7604C17.847 32.8024 17.7385 32.8207 17.63 32.8139C16.32 32.8009 15.017 32.8069 13.707 32.8069C13.7027 32.7848 13.7014 32.7623 13.703 32.7399Z" fill="white"/>
</g>
<g filter="url(#filter1_d)">
<path d="M32.858 40.339C32.858 38.646 32.851 36.96 32.865 35.268C32.865 35.013 32.799 34.952 32.553 34.952C31.353 34.9653 30.1563 34.9653 28.963 34.952C28.684 34.945 28.591 35.006 28.597 35.315C28.61 38.647 28.597 41.985 28.61 45.315C28.61 45.644 28.524 45.715 28.21 45.715C26.3153 45.7016 24.4207 45.7016 22.526 45.715C22.26 45.715 22.194 45.615 22.16 45.386C21.4887 41.282 20.8106 37.171 20.126 33.053C20.1077 32.979 20.1104 32.9014 20.1339 32.829C20.1574 32.7565 20.2008 32.6921 20.259 32.643C23.683 29.1836 27.1047 25.7243 30.524 22.265C30.697 22.09 30.783 22.117 30.936 22.278C34.3467 25.7306 37.7617 29.181 41.181 32.629C41.2409 32.6751 41.2869 32.7368 41.3139 32.8074C41.3409 32.878 41.3478 32.9547 41.334 33.029C40.6493 37.1536 39.9713 41.278 39.3 45.402C39.26 45.644 39.167 45.718 38.921 45.718C37.013 45.705 35.111 45.705 33.203 45.718C32.891 45.718 32.851 45.618 32.851 45.342C32.865 43.677 32.858 42.012 32.858 40.339Z" fill="white"/>
</g>
<defs>
<filter id="filter0_d" x="11.7023" y="14.7114" width="37.9987" height="21.1039" filterUnits="userSpaceOnUse" color-interpolation-filters="sRGB">
<feFlood flood-opacity="0" result="BackgroundImageFix"/>
<feColorMatrix in="SourceAlpha" type="matrix" values="0 0 0 0 0 0 0 0 0 0 0 0 0 0 0 0 0 0 127 0" result="hardAlpha"/>
<feOffset dy="1"/>
<feGaussianBlur stdDeviation="1"/>
<feColorMatrix type="matrix" values="0 0 0 0 0 0 0 0 0 0 0 0 0 0 0 0 0 0 0.541 0"/>
<feBlend mode="normal" in2="BackgroundImageFix" result="effect1_dropShadow"/>
<feBlend mode="normal" in="SourceGraphic" in2="effect1_dropShadow" result="shape"/>
</filter>
<filter id="filter1_d" x="18.114" y="21.145" width="25.2269" height="27.5729" filterUnits="userSpaceOnUse" color-interpolation-filters="sRGB">
<feFlood flood-opacity="0" result="BackgroundImageFix"/>
<feColorMatrix in="SourceAlpha" type="matrix" values="0 0 0 0 0 0 0 0 0 0 0 0 0 0 0 0 0 0 127 0" result="hardAlpha"/>
<feOffset dy="1"/>
<feGaussianBlur stdDeviation="1"/>
<feColorMatrix type="matrix" values="0 0 0 0 0 0 0 0 0 0 0 0 0 0 0 0 0 0 0.541 0"/>
<feBlend mode="normal" in2="BackgroundImageFix" result="effect1_dropShadow"/>
<feBlend mode="normal" in="SourceGraphic" in2="effect1_dropShadow" result="shape"/>
</filter>
<linearGradient id="paint0_linear" x1="50.778" y1="55.552" x2="9.486" y2="11.532" gradientUnits="userSpaceOnUse">
<stop stop-color="#F7313D"/>
<stop offset="1" stop-color="#FF009D"/>
</linearGradient>
</defs>
</svg>
